<?xml version="1.0" standalone="no"?>
<!DOCTYPE svg PUBLIC "-//W3C//DTD SVG 20010904//EN"
 "http://www.w3.org/TR/2001/REC-SVG-20010904/DTD/svg10.dtd">
<svg version="1.0" xmlns="http://www.w3.org/2000/svg"
 width="230.000000pt" height="196.000000pt" viewBox="0 0 230.000000 196.000000"
 preserveAspectRatio="xMidYMid meet">

<g transform="translate(0.000000,196.000000) scale(0.100000,-0.100000)"
fill="#000000" stroke="none">
<path d="M873 1428 c-139 -45 -253 -84 -253 -87 0 -3 46 -20 101 -37 101 -31
101 -31 137 -12 45 23 136 24 217 3 55 -15 65 -15 121 1 75 20 193 16 221 -7
25 -22 83 -7 83 21 0 11 -4 20 -9 20 -4 0 -73 11 -152 25 -79 14 -163 25 -186
25 -31 0 -43 4 -43 14 0 25 19 28 63 12 23 -9 110 -27 192 -39 138 -21 150
-25 153 -45 4 -27 4 -27 81 -1 l63 22 -263 83 c-145 46 -266 83 -269 83 -3 0
-119 -36 -257 -81z"/>
<path d="M915 1280 c-61 -9 -65 -14 -65 -88 l0 -67 83 3 c64 3 98 -1 143 -17
l59 -20 60 21 c47 16 78 19 143 16 l82 -4 0 67 c0 61 -3 70 -22 80 -36 19
-155 15 -213 -8 -44 -17 -54 -18 -83 -6 -45 18 -138 30 -187 23z"/>
<path d="M626 1105 c-20 -20 -20 -25 -1 -53 9 -12 19 -44 22 -72 7 -62 23 -55
23 11 0 27 6 58 12 69 25 39 -23 77 -56 45z"/>
<path d="M1592 1108 c-14 -14 -16 -50 -3 -63 6 -6 11 -32 13 -59 4 -71 28 -74
28 -3 0 36 5 59 15 67 19 16 19 35 -1 54 -19 19 -36 20 -52 4z"/>
<path d="M826 1066 c-32 -12 -73 -34 -90 -48 l-31 -25 -3 -172 -3 -172 33 -32
c34 -32 115 -63 223 -87 28 -6 109 -11 180 -11 140 0 279 27 363 70 69 35 72
45 72 227 0 159 -1 163 -25 192 -18 21 -49 38 -107 57 -95 31 -167 30 -257 -4
-51 -19 -51 -19 -94 2 -65 32 -185 34 -261 3z m584 -60 c30 -8 66 -24 80 -34
24 -19 25 -23 28 -157 2 -109 -1 -142 -12 -160 -32 -48 -221 -96 -377 -96
-156 0 -330 45 -364 95 -22 30 -21 273 0 303 17 24 94 52 175 64 89 13 407 2
470 -15z"/>
<path d="M874 921 c-64 -39 -66 -144 -4 -176 34 -17 83 -19 111 -5 22 13 49
61 49 90 0 37 -30 81 -65 96 -45 18 -54 18 -91 -5z m80 -11 c34 -13 33 -26 -1
-25 -23 0 -27 -4 -28 -25 0 -18 -5 -24 -17 -22 -23 4 -24 -25 -1 -50 9 -10 24
-18 35 -18 10 0 18 -4 18 -10 0 -20 -66 -11 -87 13 -29 32 -34 52 -21 88 9 25
43 52 75 59 1 0 13 -4 27 -10z"/>
<path d="M1310 933 c-79 -29 -91 -151 -19 -188 89 -47 180 27 149 121 -18 54
-79 85 -130 67z m63 -25 c33 -17 46 -39 47 -77 0 -46 -33 -81 -77 -81 -18 0
-33 5 -33 10 0 6 8 10 17 10 9 0 25 7 35 17 39 35 10 103 -45 103 -30 1 -31 1
-13 15 24 18 40 19 69 3z m-65 -51 c2 -12 -3 -17 -17 -17 -12 0 -21 6 -21 13
0 31 32 34 38 4z"/>
<path d="M626 898 c-24 -34 -21 -130 4 -153 20 -18 20 -17 20 78 0 54 -2 97
-4 97 -3 0 -12 -10 -20 -22z"/>
<path d="M1620 827 c0 -81 2 -95 15 -91 20 8 38 79 31 119 -4 18 -15 40 -26
50 -20 18 -20 17 -20 -78z"/>
</g>
</svg>
